<svg width="22" height="8" viewBox="0 0 22 8" fill="none" xmlns="http://www.w3.org/2000/svg">
<g id="text__COLOR:landing-logo">
<path d="M2.05052 7.61169H2.95709L4.55777 1.83892H4.61443L6.2151 7.61169H7.12168L9.10482 0.367432H8.21241L6.69672 6.26754H6.6259L5.08188 0.367432H4.09032L2.5463 6.26754H2.47548L0.959794 0.367432H0.0673828L2.05052 7.61169Z" fill="white"/>
<path d="M10.1991 7.61169H14.6328V6.83349H11.0773V4.37158H14.3495V3.59339H11.0773V1.14562H14.5761V0.367432H10.1991V7.61169Z" fill="white"/>
<path d="M16.1591 7.61169H18.7797C20.4937 7.61169 21.2019 6.7769 21.2019 5.68743C21.2019 4.54137 20.4087 3.91881 19.7429 3.87637V3.80562C20.3662 3.63583 20.9186 3.22552 20.9186 2.29169C20.9186 1.23052 20.2104 0.367432 18.6947 0.367432H16.1591V7.61169ZM17.0374 6.83349V4.31498H18.8222C19.7713 4.31498 20.3662 4.95169 20.3662 5.68743C20.3662 6.32413 19.9271 6.83349 18.7797 6.83349H17.0374ZM17.0374 3.55094V1.14562H18.6947C19.6579 1.14562 20.0829 1.65498 20.0829 2.29169C20.0829 3.05573 19.4596 3.55094 18.6664 3.55094H17.0374Z" fill="white"/>
</g>
</svg>
