<svg width="23" height="10" viewBox="0 0 23 10" fill="none" xmlns="http://www.w3.org/2000/svg">
<g id="text__COLOR:landing-logo">
<path d="M3.68896 9.6607L4.58864 9.5492L5.46725 3.62329L5.52348 3.61632L7.82186 9.1485L8.72153 9.037L9.79874 1.6037L8.91312 1.71346L8.13452 7.7553L8.06423 7.76401L5.80642 2.09848L4.8224 2.22043L4.01568 8.26576L3.94539 8.27447L1.7157 2.60545L0.830078 2.71521L3.68896 9.6607Z" fill="white"/>
<path d="M11.7755 8.65851L16.1755 8.11321L16.0798 7.34091L12.5514 7.7782L12.2486 5.33493L15.4959 4.93249L15.4002 4.16019L12.1529 4.56263L11.8519 2.1334L15.3241 1.70308L15.2284 0.930784L10.8847 1.46912L11.7755 8.65851Z" fill="white"/>
<path d="M17.6902 7.92549L20.2908 7.60319C21.9918 7.39239 22.592 6.47681 22.458 5.39559C22.3171 4.25821 21.4533 3.73793 20.7874 3.77769L20.7787 3.70748C21.3763 3.46232 21.8741 2.98717 21.7593 2.06041C21.6288 1.00727 20.8198 0.237833 19.3156 0.424246L16.7994 0.736096L17.6902 7.92549ZM18.4661 7.04518L18.1564 4.54574L19.9276 4.32623C20.8694 4.2095 21.5382 4.76821 21.6286 5.49838C21.7069 6.13026 21.3338 6.68978 20.1951 6.83089L18.4661 7.04518ZM18.0624 3.78748L17.7666 1.40038L19.4113 1.19654C20.3672 1.07808 20.8516 1.53132 20.9299 2.1632C21.0239 2.92145 20.4662 3.48957 19.679 3.58713L18.0624 3.78748Z" fill="white"/>
</g>
</svg>
