<svg width="22" height="11" viewBox="0 0 22 11" fill="none" xmlns="http://www.w3.org/2000/svg">
<g id="text__COLOR:landing-logo">
<path d="M2.8614 10.1255L3.76111 10.0143L4.63785 4.08921L4.69408 4.08226L6.99447 9.61474L7.89418 9.50354L8.96904 2.07121L8.08338 2.18066L7.3067 8.22175L7.23641 8.23044L4.97655 2.56464L3.99249 2.68626L3.18769 8.73082L3.1174 8.73951L0.885658 3.07023L0 3.17969L2.8614 10.1255Z" fill="white"/>
<path d="M10.9483 9.12609L15.3485 8.58227L15.2525 7.81L11.7239 8.2461L11.4204 5.80293L14.6678 5.40158L14.5718 4.62932L11.3244 5.03066L11.0226 2.60153L14.4949 2.17239L14.399 1.40012L10.055 1.93699L10.9483 9.12609Z" fill="white"/>
<path d="M16.8632 8.39506L19.464 8.07364C21.165 7.86341 21.765 6.94811 21.6306 5.86693C21.4893 4.72959 20.6253 4.20908 19.9593 4.24861L19.9506 4.17841C20.5482 3.93347 21.0459 3.45851 20.9307 2.53179C20.7999 1.4787 19.9906 0.709058 18.4863 0.894964L15.97 1.20596L16.8632 8.39506ZM17.6389 7.51508L17.3283 5.01574L19.0996 4.79682C20.0415 4.68042 20.7105 5.2393 20.8012 5.96944C20.8797 6.6013 20.5067 7.16064 19.368 7.30137L17.6389 7.51508ZM17.2341 4.25752L16.9375 1.87051L18.5823 1.66723C19.5382 1.54908 20.0228 2.00245 20.1013 2.6343C20.1955 3.39253 19.638 3.96041 18.8508 4.05771L17.2341 4.25752Z" fill="white"/>
</g>
</svg>
